<svg width="25" height="25" viewBox="0 0 25 25" fill="none" xmlns="http://www.w3.org/2000/svg">
<rect x="9.07462" y="15.2318" width="0.856093" height="9.76821" fill="#352348"/>
<rect y="15.2318" width="9.07458" height="0.827815" fill="#352348"/>
<rect y="16.0596" width="0.513656" height="8.9404" fill="#352348"/>
<rect x="0.513641" y="24.5034" width="8.56093" height="0.496689" fill="#352348"/>
<rect x="2.39703" y="18.0463" width="4.6229" height="4.4702" fill="#352348"/>
<rect x="9.07462" width="0.856093" height="9.76821" fill="#352348"/>
<rect width="9.07458" height="0.827815" fill="#352348"/>
<rect y="0.82782" width="0.513656" height="8.9404" fill="#352348"/>
<rect x="0.513641" y="9.27155" width="8.56093" height="0.496689" fill="#352348"/>
<rect x="2.39703" y="2.81451" width="4.6229" height="4.4702" fill="#352348"/>
<rect x="23.6593" y="15.8077" width="1.1041" height="1.52519" fill="#352348"/>
<rect x="12.3817" y="0.0220947" width="1.02524" height="3.58419" fill="#352348"/>
<rect x="12.3817" y="5.36023" width="1.02524" height="2.59282" fill="#352348"/>
<rect x="12.3817" y="8.94446" width="1.02524" height="1.29641" fill="#352348"/>
<rect x="12.3817" y="15.2739" width="1.02524" height="8.92234" fill="#352348"/>
<rect x="13.4069" y="23.3574" width="1.57729" height="0.838852" fill="#352348"/>
<rect x="14.9842" y="21.0697" width="1.57729" height="1.06763" fill="#352348"/>
<rect x="13.4069" y="16.7228" width="1.57729" height="1.06763" fill="#352348"/>
<rect x="16.5615" y="16.2654" width="4.25867" height="1.06763" fill="#352348"/>
<rect x="20.1893" y="12.4524" width="1.41956" height="1.06763" fill="#352348"/>
<rect x="16.0095" y="11.4609" width="1.65615" height="1.06763" fill="#352348"/>
<rect x="13.6436" y="12.9861" width="2.12934" height="1.29641" fill="#352348"/>
<rect x="3.94324" y="11.9948" width="7.88643" height="0.991371" fill="#352348"/>
<rect y="11.9948" width="2.91798" height="0.991371" fill="#352348"/>
<rect x="23.1072" y="11.9948" width="1.89274" height="1.06763" fill="#352348"/>
<rect x="17.5868" y="19.0869" width="2.44479" height="0.991371" fill="#352348"/>
<rect x="18.9274" y="23.3574" width="5.83596" height="0.838852" fill="#352348"/>
<rect x="20.1893" y="20.8409" width="1.1041" height="2.51656" fill="#352348"/>
<rect x="18.3754" y="14.7401" width="1.1041" height="1.52519" fill="#352348"/>
<rect x="23.6593" y="19.3157" width="1.1041" height="4.04174" fill="#352348"/>
<rect x="24.1418" width="0.856093" height="9.76821" fill="#352348"/>
<rect x="15.0672" width="9.07458" height="0.827815" fill="#352348"/>
<rect x="15.0673" y="0.82782" width="0.513656" height="8.9404" fill="#352348"/>
<rect x="15.5809" y="9.27155" width="8.56093" height="0.496689" fill="#352348"/>
<rect x="17.4643" y="2.81451" width="4.6229" height="4.4702" fill="#352348"/>
</svg>
