<svg width="150" height="25" viewBox="0 0 150 25" fill="none" xmlns="http://www.w3.org/2000/svg">
<path d="M28.8388 22.4458V17.7365H31.9988V22.4458H28.8388ZM33.0522 22.4458V17.7365H34.1055V22.4458H33.0522ZM37.2655 22.4458V17.7365H39.3722V22.4458H37.2655ZM31.5775 23.1403H32.4202L33.298 24.3934L34.6322 23.2759H34.9131L36.2122 24.4014L36.9495 23.1403H37.722L36.458 24.992H36.1069L34.7024 23.7868L33.2628 24.992H32.8766L31.5775 23.1403ZM40.0772 22.4458V17.7365H41.1305V22.4458H40.0772ZM44.2905 22.4458V17.7365H46.3972V22.4458H44.2905ZM47.4505 22.4458V17.7365H48.5039V22.4458H47.4505ZM43.3776 23.1403H48.3634V23.3238H44.2203V23.9305H47.6612V24.122H44.2203V24.8085H48.3283V24.992H43.3776V23.1403ZM51.3155 22.4458V17.7365H52.3688V22.4458H51.3155ZM55.5288 22.4458V17.7365H56.5822V22.4458H55.5288ZM57.6355 22.4458V17.7365H59.7423V22.4458H57.6355ZM54.4755 23.1403H56.7928C57.6823 23.1403 58.3495 23.1802 58.7943 23.26C59.2624 23.3398 59.4965 23.4515 59.4965 23.5952C59.4965 23.6857 59.3911 23.7682 59.1805 23.8427C58.9464 23.9172 58.6421 23.9704 58.2676 24.0023C58.7357 24.0395 59.1103 24.1007 59.3911 24.1859C59.672 24.2763 59.8125 24.3721 59.8125 24.4732C59.8125 24.6329 59.555 24.7606 59.04 24.8564C58.5485 24.9468 57.7876 24.992 56.7577 24.992H54.4755V23.1403ZM56.6524 23.9065C57.9398 23.9065 58.5836 23.8081 58.5836 23.6112C58.5836 23.526 58.4314 23.4569 58.1271 23.4037C57.8462 23.3451 57.4014 23.3159 56.7928 23.3159H55.3533V23.9065H56.6524ZM56.9333 24.8085C58.1974 24.8085 58.8294 24.6914 58.8294 24.4573C58.8294 24.2072 58.1154 24.0821 56.6875 24.0821H55.3533V24.8085H56.9333ZM62.5538 22.4458V17.7365H64.6605V22.4458H62.5538ZM65.7138 22.4458V17.7365H67.8205V22.4458H65.7138ZM69.9271 22.4458V17.7365H72.0338V22.4458H69.9271ZM73.792 22.4458V17.7365H74.8453V22.4458H73.792ZM75.8987 22.4458V17.7365H76.952V22.4458H75.8987ZM80.112 22.4458V17.7365H82.2187V22.4458H80.112ZM80.8845 24.4493H78.2511L77.4436 24.992H76.5307L79.5151 23.1083H79.6205L82.64 24.992H81.692L80.8845 24.4493ZM80.6387 24.2896L79.5854 23.5872L78.4969 24.2896H80.6387ZM85.0305 22.4458V17.7365H88.1905V22.4458H85.0305ZM89.2439 22.4458V17.7365H92.4039V22.4458H89.2439ZM93.4572 22.4458V17.7365H95.5639V22.4458H93.4572ZM88.331 23.1403H90.9292C91.7953 23.1403 92.439 23.1908 92.8603 23.2919C93.3051 23.3877 93.5274 23.5127 93.5274 23.6671C93.5274 23.8161 93.3168 23.9384 92.8954 24.0342C92.4741 24.13 91.8421 24.1779 90.9994 24.1779H89.279V24.992H88.331V23.1403ZM90.8941 23.9943C91.4793 23.9943 91.9006 23.965 92.1581 23.9065C92.439 23.8533 92.5794 23.7761 92.5794 23.675C92.5794 23.5739 92.439 23.4941 92.1581 23.4356C91.8772 23.3717 91.4676 23.3398 90.9292 23.3398H89.279V23.9943H90.8941ZM96.2687 22.4458V17.7365H99.4288V22.4458H96.2687ZM100.482 22.4458V17.7365H103.642V22.4458H100.482ZM104.695 22.4458V17.7365H106.802V22.4458H104.695ZM99.5692 23.1403H102.167C103.034 23.1403 103.677 23.1908 104.099 23.2919C104.543 23.3877 104.766 23.5127 104.766 23.6671C104.766 23.8161 104.555 23.9384 104.134 24.0342C103.712 24.13 103.08 24.1779 102.238 24.1779H100.517V24.992H99.5692V23.1403ZM102.132 23.9943C102.718 23.9943 103.139 23.965 103.396 23.9065C103.677 23.8533 103.818 23.7761 103.818 23.675C103.818 23.5739 103.677 23.4941 103.396 23.4356C103.115 23.3717 102.706 23.3398 102.167 23.3398H100.517V23.9943H102.132ZM107.507 22.4458V17.7365H109.614V22.4458H107.507ZM110.667 22.4458V17.7365H112.774V22.4458H110.667ZM114.881 22.4458V17.7365H116.987V22.4458H114.881ZM118.745 22.4458V17.7365H119.799V22.4458H118.745ZM120.852 22.4458V17.7365H122.959V22.4458H120.852ZM126.119 22.4458V17.7365H127.172V22.4458H126.119ZM121.976 23.1403H123.872C124.551 23.1403 125.077 23.1615 125.452 23.2041C125.85 23.2467 126.189 23.3105 126.47 23.3957C127.008 23.5553 127.278 23.7815 127.278 24.0741C127.231 24.3774 126.926 24.6063 126.365 24.7606C125.803 24.9202 124.925 24.9974 123.731 24.992H121.976V23.1403ZM123.661 24.8324C125.463 24.8324 126.365 24.585 126.365 24.0901C126.365 23.84 126.166 23.6484 125.768 23.5154C125.346 23.3824 124.691 23.3159 123.801 23.3159H122.853V24.8324H123.661ZM129.984 22.4458V17.7365H131.037V22.4458H129.984ZM134.197 22.4458V17.7365H136.304V22.4458H134.197ZM137.357 22.4458V17.7365H138.41V22.4458H137.357ZM133.284 23.1403H138.27V23.3238H134.127V23.9305H137.568V24.122H134.127V24.8085H138.235V24.992H133.284V23.1403ZM141.222 22.4458V17.7365H144.382V22.4458H141.222ZM145.436 22.4458V17.7365H146.489V22.4458H145.436ZM147.542 22.4458V17.7365H149.649V22.4458H147.542ZM144.066 23.1403H145.014L147.121 24.561L149.087 23.1403H150L147.261 25H146.84L144.066 23.1403Z" fill="#352348"/>
<path d="M31.2212 15.3917H29.0905V4.07135H31.2212V15.3917ZM30.1642 0.139022C30.5781 0.139022 30.9052 0.221773 31.1457 0.387275C31.3862 0.546157 31.5064 0.801031 31.5064 1.1519V1.6484C31.5064 1.96616 31.3862 2.19456 31.1457 2.33358C30.9052 2.4726 30.5781 2.54212 30.1642 2.54212C29.7672 2.54212 29.4456 2.4726 29.1995 2.33358C28.9591 2.19456 28.8388 1.96616 28.8388 1.6484V1.1519C28.8388 0.801031 28.9591 0.546157 29.1995 0.387275C29.4456 0.221773 29.7672 0.139022 30.1642 0.139022ZM37.8273 2.58184C37.4974 2.61494 37.1954 2.65134 36.9213 2.69107C36.6473 2.72417 36.3845 2.76059 36.1328 2.80029V12.8496C36.5019 12.9092 36.9102 12.9621 37.3576 13.0085C37.8049 13.0548 38.2915 13.0879 38.8172 13.1078C38.9849 13.121 39.1499 13.1276 39.3121 13.1276C39.4743 13.1276 39.6392 13.1276 39.807 13.1276C39.9748 13.1276 40.1425 13.1276 40.3103 13.1276C40.4781 13.1276 40.6459 13.121 40.8136 13.1078C41.44 13.0879 41.9964 13.0515 42.4829 12.9985C42.9751 12.939 43.4197 12.8628 43.8167 12.7701C43.9174 12.1148 44.0013 11.3204 44.0684 10.3869H45.9809C45.9474 11.0953 45.8999 11.8202 45.8383 12.5616C45.7768 13.2964 45.6902 14.0545 45.5784 14.8356C44.5158 15.0475 43.5035 15.1898 42.5417 15.2626C41.5854 15.3354 40.685 15.3718 39.8406 15.3718C38.9737 15.3718 38.0566 15.3354 37.0891 15.2626C36.1216 15.1898 35.115 15.0475 34.0693 14.8356V0.794411C34.7347 0.65539 35.3779 0.552778 35.9986 0.486576C36.625 0.413755 37.2345 0.357484 37.8273 0.317765V2.58184ZM53.0905 4.07135C53.3756 4.07135 53.7195 4.08791 54.1222 4.12101C54.5248 4.15411 54.9414 4.21369 55.3721 4.29975C55.8083 4.37918 56.2389 4.49504 56.664 4.64731C57.0889 4.79294 57.4693 4.98161 57.8047 5.21332C58.1459 5.44503 58.4199 5.72639 58.6268 6.05739C58.8394 6.38176 58.9456 6.76574 58.9456 7.20929V10.5657H49.3324V13.1078C50.009 13.2203 50.6605 13.2998 51.2869 13.3461C51.9132 13.3858 52.5144 13.4057 53.0905 13.4057C53.9683 13.4057 54.7625 13.366 55.4727 13.2865C56.1885 13.2071 56.8066 13.1177 57.3265 13.0184C57.925 12.9059 58.4647 12.7768 58.9456 12.6311V14.8356C57.883 15.0342 56.8568 15.1766 55.867 15.2626C54.8827 15.3487 53.9572 15.3917 53.0905 15.3917C52.218 15.3917 51.4266 15.3652 50.7165 15.3123C50.0063 15.2527 49.3967 15.1865 48.8877 15.1137C48.2949 15.0342 47.7609 14.9416 47.2856 14.8356V7.20929C47.2856 6.76574 47.3778 6.38176 47.5623 6.05739C47.7469 5.72639 47.993 5.44503 48.3006 5.21332C48.6081 4.98161 48.9605 4.79294 49.3575 4.64731C49.7602 4.49504 50.1768 4.37918 50.6074 4.29975C51.0381 4.21369 51.4658 4.15411 51.8909 4.12101C52.3214 4.08791 52.7212 4.07135 53.0905 4.07135ZM49.3324 8.97684H56.8653V7.82495C56.8653 7.55352 56.8093 7.32182 56.6975 7.12984C56.5857 6.93123 56.4346 6.76574 56.2445 6.63333C56.06 6.50093 55.8418 6.39501 55.5903 6.31556C55.3442 6.2295 55.0869 6.16661 54.8185 6.12689C54.55 6.08055 54.2787 6.05076 54.0047 6.03752C53.7363 6.02429 53.4819 6.01766 53.2414 6.01766C52.9897 6.01766 52.7185 6.02429 52.4278 6.03752C52.1424 6.05076 51.8545 6.08055 51.5638 6.12689C51.2728 6.17324 50.9932 6.23944 50.7248 6.32549C50.4564 6.40494 50.2187 6.51417 50.0119 6.65319C49.8048 6.7856 49.6399 6.95109 49.5169 7.1497C49.3938 7.34168 49.3324 7.57338 49.3324 7.84482V8.97684ZM70.7861 11.3402C70.6464 11.1946 70.473 11.0522 70.266 10.9132C70.0591 10.7742 69.8047 10.6517 69.5027 10.5458C69.2007 10.4333 68.84 10.3439 68.4206 10.2777C68.0067 10.2049 67.5203 10.1685 66.9609 10.1685C66.4633 10.1685 65.9907 10.1817 65.5433 10.2082C65.1015 10.228 64.7128 10.2942 64.3774 10.4068C64.0418 10.5127 63.7761 10.6848 63.5804 10.9231C63.3847 11.1615 63.2868 11.4925 63.2868 11.9162V13.1872C63.779 13.2799 64.3214 13.356 64.9142 13.4156C65.5069 13.4752 66.1669 13.505 66.8939 13.505C67.4755 13.505 68.0935 13.4818 68.7478 13.4355C69.4076 13.3825 70.0871 13.2799 70.7861 13.1276V11.3402ZM67.0113 4.07135C67.2909 4.07135 67.6292 4.08791 68.0264 4.12101C68.4233 4.15411 68.8372 4.21369 69.2679 4.29975C69.6985 4.37918 70.1234 4.49173 70.5429 4.63738C70.9679 4.7764 71.3482 4.96175 71.6838 5.19346C72.0249 5.41854 72.2989 5.68997 72.5058 6.00773C72.7127 6.32549 72.8162 6.69952 72.8162 7.12984V14.8158C72.3465 14.9283 71.8152 15.0243 71.2223 15.1037C70.7134 15.1766 70.1067 15.2428 69.402 15.3023C68.6974 15.3619 67.9117 15.3917 67.0448 15.3917C66.1837 15.3917 65.2666 15.3487 64.2935 15.2626C63.326 15.1766 62.3138 15.0276 61.2568 14.8158V11.2409C61.2568 10.8569 61.3323 10.5226 61.4833 10.238C61.6399 9.94669 61.8524 9.69842 62.1208 9.49321C62.3893 9.28799 62.7052 9.11918 63.0687 8.98677C63.4322 8.85437 63.8236 8.74845 64.2431 8.669C64.6626 8.58957 65.0988 8.53661 65.5518 8.51012C66.0047 8.47702 66.4577 8.46048 66.9107 8.46048C67.5986 8.46048 68.183 8.51344 68.6639 8.61936C69.1503 8.71866 69.5531 8.82788 69.8719 8.94706C70.241 9.09269 70.5458 9.25489 70.7861 9.43364V7.82495C70.7861 7.55352 70.7303 7.32182 70.6183 7.12984C70.5065 6.93123 70.3555 6.76574 70.1654 6.63333C69.9752 6.49431 69.7572 6.38508 69.5111 6.30563C69.265 6.21957 69.0077 6.15338 68.7393 6.10703C68.4709 6.06069 68.1969 6.0309 67.9173 6.01766C67.6432 6.00443 67.386 5.9978 67.1456 5.9978C66.8939 5.9978 66.6255 6.00773 66.3403 6.02759C66.055 6.04083 65.7698 6.07062 65.4846 6.11696C65.205 6.16331 64.9337 6.2295 64.6709 6.31556C64.4137 6.39501 64.1844 6.50424 63.9831 6.64326C63.7817 6.78228 63.6196 6.95109 63.4965 7.1497C63.3791 7.34168 63.3204 7.57338 63.3204 7.84482L61.2401 7.20929C61.2401 6.76574 61.3323 6.38176 61.5168 6.05739C61.7014 5.72639 61.9446 5.44503 62.2467 5.21332C62.5542 4.98161 62.9065 4.79294 63.3037 4.64731C63.7006 4.49504 64.1117 4.37918 64.5367 4.29975C64.9674 4.21369 65.3951 4.15411 65.8202 4.12101C66.2451 4.08791 66.6422 4.07135 67.0113 4.07135ZM82.7275 4.07135C82.7275 4.75984 82.7078 5.47812 82.6686 6.2262C82.6295 6.96765 82.5541 7.73227 82.4421 8.52005H80.4122C80.4625 8.29497 80.51 8.05003 80.5548 7.78523C80.5883 7.56015 80.6191 7.29865 80.647 7.00075C80.6806 6.69622 80.6974 6.37515 80.6974 6.03752C80.2052 6.05076 79.797 6.10703 79.4726 6.20634C79.1539 6.29902 78.8882 6.41155 78.6758 6.54396C78.4632 6.66975 78.2899 6.79884 78.1556 6.93123C78.0215 7.06364 77.9012 7.16956 77.795 7.24899V15.3917H75.6476V7.18942C75.6251 6.97758 75.572 6.79884 75.4881 6.65319C75.4098 6.50754 75.3259 6.38839 75.2364 6.2957C75.1357 6.18317 75.0212 6.09048 74.8925 6.01766L75.7817 4.07135C75.9886 4.15741 76.1927 4.27326 76.394 4.41891C76.5674 4.54469 76.7492 4.70688 76.9393 4.90549C77.135 5.09747 77.3084 5.3358 77.4594 5.62046C77.7446 5.38876 78.0075 5.19346 78.248 5.03458C78.4884 4.86908 78.7204 4.73005 78.9442 4.61752C79.1734 4.50497 79.4083 4.41891 79.6488 4.35932C79.8948 4.29313 80.1632 4.24016 80.4541 4.20044C80.7505 4.16073 81.0805 4.13424 81.444 4.12101C81.8131 4.10114 82.2408 4.08459 82.7275 4.07135ZM85.0218 7.18942C84.9995 6.97758 84.9464 6.79884 84.8625 6.65319C84.7841 6.50754 84.6975 6.38839 84.6025 6.2957C84.4961 6.18317 84.3787 6.09048 84.2501 6.01766L85.1896 4.07135C85.3965 4.15741 85.6035 4.27326 85.8103 4.41891C85.9837 4.54469 86.1654 4.70688 86.3557 4.90549C86.5514 5.09747 86.7219 5.3358 86.8673 5.62046C87.1469 5.40862 87.4321 5.21002 87.7229 5.02464C88.0194 4.83266 88.3269 4.66717 88.6457 4.52814C88.97 4.38912 89.3084 4.27989 89.6607 4.20044C90.0187 4.11438 90.4016 4.07135 90.8099 4.07135C91.6711 4.07135 92.4094 4.15741 93.0245 4.32955C93.6453 4.49504 94.1514 4.7466 94.5428 5.08423C94.9399 5.41523 95.2307 5.82899 95.4152 6.32549C95.5998 6.822 95.692 7.40127 95.692 8.06327V15.3917H93.4943V8.67893C93.4943 8.30821 93.4523 7.99044 93.3684 7.72564C93.2845 7.45423 93.1698 7.22583 93.0245 7.04047C92.8847 6.84848 92.7197 6.69292 92.5296 6.57376C92.3393 6.45458 92.1409 6.36522 91.9339 6.30563C91.7326 6.23944 91.5257 6.19641 91.3132 6.17654C91.1007 6.15007 90.8994 6.13682 90.7093 6.13682C90.3514 6.13682 90.0102 6.16661 89.6858 6.2262C89.3615 6.28577 89.0539 6.36852 88.7631 6.47445C88.4723 6.57376 88.1983 6.69292 87.9411 6.83193C87.6838 6.97095 87.4433 7.1166 87.2197 7.26886V15.3917H85.0218V7.18942ZM103.691 0C104.535 0 105.335 0.0893711 106.09 0.268114C106.845 0.440235 107.502 0.68518 108.061 1.00294C108.626 1.32071 109.073 1.70135 109.403 2.1449C109.733 2.58184 109.898 3.0651 109.898 3.5947V5.34241H107.684V4.36925C107.684 4.08459 107.591 3.81317 107.407 3.55498C107.222 3.29019 106.957 3.06179 106.61 2.86981C106.269 2.67121 105.852 2.51563 105.36 2.4031C104.868 2.28392 104.311 2.22435 103.691 2.22435C103.092 2.22435 102.547 2.28062 102.055 2.39317C101.563 2.49909 101.141 2.64804 100.788 2.84002C100.436 3.032 100.162 3.2604 99.9661 3.5252C99.776 3.78338 99.681 4.06474 99.681 4.36925V11.3799C99.681 11.6712 99.776 11.946 99.9661 12.2041C100.162 12.4623 100.436 12.6874 100.788 12.8794C101.141 13.0647 101.563 13.2137 102.055 13.3262C102.547 13.4322 103.092 13.4851 103.691 13.4851C104.311 13.4851 104.868 13.4289 105.36 13.3163C105.852 13.1972 106.269 13.0416 106.61 12.8496C106.957 12.6576 107.222 12.4358 107.407 12.1843C107.591 11.9261 107.684 11.658 107.684 11.3799V10.3869H109.898V12.1346C109.898 12.4855 109.823 12.8198 109.672 13.1376C109.521 13.4487 109.308 13.7367 109.034 14.0015C108.766 14.2663 108.441 14.5046 108.061 14.7165C107.686 14.9217 107.267 15.1004 106.803 15.2527C106.344 15.3983 105.852 15.5109 105.326 15.5903C104.801 15.6697 104.255 15.7095 103.691 15.7095C103.126 15.7095 102.581 15.6697 102.055 15.5903C101.529 15.5109 101.034 15.3983 100.57 15.2527C100.112 15.1004 99.6921 14.9217 99.3119 14.7165C98.9372 14.5046 98.6128 14.2663 98.3388 14.0015C98.0704 13.7367 97.8606 13.4487 97.7096 13.1376C97.5587 12.8198 97.4831 12.4855 97.4831 12.1346V3.5947C97.4831 3.24384 97.5587 2.90954 97.7096 2.59177C97.8606 2.27401 98.0704 1.98272 98.3388 1.71791C98.6128 1.45311 98.9372 1.21479 99.3119 1.00294C99.6921 0.791101 100.112 0.612358 100.57 0.466716C101.034 0.314455 101.529 0.198602 102.055 0.119161C102.581 0.0397204 103.126 0 103.691 0ZM117.561 3.89261C118.031 3.89261 118.498 3.9191 118.962 3.97206C119.432 4.02502 119.882 4.11108 120.313 4.23023C120.743 4.34941 121.146 4.49836 121.521 4.67709C121.895 4.85583 122.22 5.071 122.494 5.32255C122.773 5.57411 122.991 5.86541 123.148 6.19641C123.305 6.52078 123.383 6.8849 123.383 7.28872V12.4325C123.383 12.79 123.305 13.1177 123.148 13.4156C122.991 13.7135 122.773 13.9816 122.494 14.2199C122.22 14.4517 121.895 14.6536 121.521 14.8257C121.146 14.9978 120.743 15.1401 120.313 15.2527C119.882 15.3652 119.432 15.448 118.962 15.5009C118.492 15.5605 118.025 15.5903 117.561 15.5903C117.097 15.5903 116.63 15.5605 116.16 15.5009C115.696 15.448 115.249 15.3652 114.818 15.2527C114.388 15.1401 113.985 14.9978 113.61 14.8257C113.241 14.6536 112.917 14.4517 112.637 14.2199C112.363 13.9816 112.148 13.7168 111.991 13.4255C111.835 13.1276 111.756 12.7966 111.756 12.4325V7.28872C111.756 6.8849 111.835 6.52078 111.991 6.19641C112.148 5.86541 112.363 5.57411 112.637 5.32255C112.917 5.071 113.241 4.85583 113.61 4.67709C113.985 4.49836 114.388 4.34941 114.818 4.23023C115.249 4.11108 115.696 4.02502 116.16 3.97206C116.63 3.9191 117.097 3.89261 117.561 3.89261ZM113.887 11.797C113.887 12.1015 113.993 12.3663 114.206 12.5914C114.424 12.8099 114.706 12.9952 115.053 13.1475C115.4 13.2931 115.791 13.4024 116.227 13.4752C116.669 13.548 117.114 13.5844 117.561 13.5844C118.031 13.5844 118.484 13.5447 118.92 13.4653C119.362 13.3858 119.753 13.2733 120.095 13.1276C120.436 12.9754 120.707 12.79 120.908 12.5716C121.115 12.3465 121.219 12.0883 121.219 11.797V7.66607C121.219 7.3814 121.115 7.12653 120.908 6.90144C120.707 6.66975 120.436 6.47775 120.095 6.32549C119.753 6.16661 119.362 6.04746 118.92 5.96801C118.484 5.88195 118.031 5.83892 117.561 5.83892C117.114 5.83892 116.669 5.87864 116.227 5.95807C115.791 6.0309 115.4 6.14345 115.053 6.2957C114.706 6.44797 114.424 6.63995 114.206 6.87166C113.993 7.09674 113.887 7.36154 113.887 7.66607V11.797ZM130.492 4.07135C130.985 4.07135 131.499 4.13756 132.036 4.26996C132.578 4.40235 133.104 4.57449 133.613 4.78633V0.278043H135.811V14.6172C135.514 14.7231 135.159 14.8224 134.745 14.9151C134.337 15.0077 133.898 15.0905 133.428 15.1633C132.959 15.2295 132.469 15.2858 131.96 15.3321C131.457 15.3718 130.968 15.3917 130.492 15.3917C129.631 15.3917 128.862 15.3222 128.186 15.1832C127.509 15.0375 126.936 14.8158 126.466 14.5179C125.996 14.2199 125.638 13.8426 125.392 13.3858C125.146 12.929 125.023 12.3862 125.023 11.7573V7.70578C125.023 7.07688 125.146 6.53403 125.392 6.07725C125.638 5.62046 125.996 5.24311 126.466 4.94521C126.936 4.64731 127.509 4.42884 128.186 4.28982C128.862 4.14417 129.631 4.07135 130.492 4.07135ZM131.096 13.5447C131.32 13.5447 131.546 13.5315 131.776 13.505C132.011 13.4785 132.237 13.4421 132.455 13.3958C132.679 13.3494 132.889 13.2964 133.084 13.2369C133.286 13.1773 133.462 13.1144 133.613 13.0482V6.81207C133.227 6.5936 132.83 6.41486 132.422 6.27584C132.019 6.13021 131.577 6.05739 131.096 6.05739C130.75 6.05739 130.411 6.06732 130.081 6.08718C129.757 6.10042 129.452 6.13682 129.167 6.19641C128.882 6.24937 128.619 6.3288 128.378 6.43472C128.138 6.53403 127.931 6.66975 127.758 6.84187C127.59 7.01398 127.459 7.22583 127.363 7.47739C127.268 7.72896 127.221 8.03017 127.221 8.38103V11.3005C127.221 11.8367 127.324 12.2571 127.531 12.5616C127.744 12.8595 128.026 13.0813 128.378 13.2269C128.731 13.3726 129.142 13.462 129.612 13.4951C130.081 13.5282 130.576 13.5447 131.096 13.5447ZM144.145 4.07135C144.43 4.07135 144.774 4.08791 145.177 4.12101C145.579 4.15411 145.996 4.21369 146.426 4.29975C146.863 4.37918 147.293 4.49504 147.718 4.64731C148.143 4.79294 148.524 4.98161 148.859 5.21332C149.2 5.44503 149.474 5.72639 149.681 6.05739C149.894 6.38176 150 6.76574 150 7.20929V10.5657H140.387V13.1078C141.063 13.2203 141.715 13.2998 142.341 13.3461C142.968 13.3858 143.569 13.4057 144.145 13.4057C145.023 13.4057 145.817 13.366 146.527 13.2865C147.243 13.2071 147.861 13.1177 148.381 13.0184C148.979 12.9059 149.519 12.7768 150 12.6311V14.8356C148.937 15.0342 147.911 15.1766 146.921 15.2626C145.937 15.3487 145.012 15.3917 144.145 15.3917C143.272 15.3917 142.481 15.3652 141.771 15.3123C141.061 15.2527 140.451 15.1865 139.942 15.1137C139.349 15.0342 138.815 14.9416 138.34 14.8356V7.20929C138.34 6.76574 138.432 6.38176 138.617 6.05739C138.801 5.72639 139.047 5.44503 139.355 5.21332C139.663 4.98161 140.015 4.79294 140.412 4.64731C140.815 4.49504 141.231 4.37918 141.662 4.29975C142.092 4.21369 142.52 4.15411 142.945 4.12101C143.376 4.08791 143.776 4.07135 144.145 4.07135ZM140.387 8.97684H147.92V7.82495C147.92 7.55352 147.864 7.32182 147.752 7.12984C147.64 6.93123 147.489 6.76574 147.299 6.63333C147.114 6.50093 146.896 6.39501 146.645 6.31556C146.399 6.2295 146.141 6.16661 145.873 6.12689C145.604 6.08055 145.333 6.05076 145.059 6.03752C144.791 6.02429 144.536 6.01766 144.296 6.01766C144.044 6.01766 143.773 6.02429 143.482 6.03752C143.197 6.05076 142.909 6.08055 142.618 6.12689C142.327 6.17324 142.048 6.23944 141.779 6.32549C141.511 6.40494 141.273 6.51417 141.066 6.65319C140.859 6.7856 140.694 6.95109 140.571 7.1497C140.448 7.34168 140.387 7.57338 140.387 7.84482V8.97684Z" fill="#F36906"/>
<rect x="8.79593" y="15.2318" width="0.829802" height="9.76821" fill="#352348"/>
<rect y="15.2318" width="8.7959" height="0.827815" fill="#352348"/>
<rect y="16.0596" width="0.497881" height="8.9404" fill="#352348"/>
<rect x="0.497864" y="24.5034" width="8.29802" height="0.496689" fill="#352348"/>
<rect x="2.32343" y="18.0463" width="4.48093" height="4.4702" fill="#352348"/>
<rect x="8.79593" width="0.829802" height="9.76821" fill="#352348"/>
<rect width="8.7959" height="0.827815" fill="#352348"/>
<rect y="0.82782" width="0.497881" height="8.9404" fill="#352348"/>
<rect x="0.497864" y="9.27155" width="8.29802" height="0.496689" fill="#352348"/>
<rect x="2.32343" y="2.81451" width="4.48093" height="4.4702" fill="#352348"/>
<rect x="22.9327" y="15.8077" width="1.07019" height="1.52519" fill="#352348"/>
<rect x="12.0014" y="0.0220947" width="0.993751" height="3.58419" fill="#352348"/>
<rect x="12.0014" y="5.36023" width="0.993751" height="2.59282" fill="#352348"/>
<rect x="12.0014" y="8.94446" width="0.993751" height="1.29641" fill="#352348"/>
<rect x="12.0014" y="15.2739" width="0.993751" height="8.92234" fill="#352348"/>
<rect x="12.9952" y="23.3574" width="1.52885" height="0.838852" fill="#352348"/>
<rect x="14.524" y="21.0697" width="1.52885" height="1.06763" fill="#352348"/>
<rect x="12.9952" y="16.7228" width="1.52885" height="1.06763" fill="#352348"/>
<rect x="16.0529" y="16.2654" width="4.12789" height="1.06763" fill="#352348"/>
<rect x="19.5693" y="12.4524" width="1.37596" height="1.06763" fill="#352348"/>
<rect x="15.5178" y="11.4609" width="1.60529" height="1.06763" fill="#352348"/>
<rect x="13.2245" y="12.9861" width="2.06394" height="1.29641" fill="#352348"/>
<rect x="3.82214" y="11.9948" width="7.64423" height="0.991371" fill="#352348"/>
<rect y="11.9948" width="2.82837" height="0.991371" fill="#352348"/>
<rect x="22.3976" y="11.9948" width="1.83462" height="1.06763" fill="#352348"/>
<rect x="17.0467" y="19.0869" width="2.36971" height="0.991371" fill="#352348"/>
<rect x="18.3462" y="23.3574" width="5.65674" height="0.838852" fill="#352348"/>
<rect x="19.5693" y="20.8409" width="1.07019" height="2.51656" fill="#352348"/>
<rect x="17.8111" y="14.7401" width="1.07019" height="1.52519" fill="#352348"/>
<rect x="22.9327" y="19.3157" width="1.07019" height="4.04174" fill="#352348"/>
<rect x="23.4004" width="0.829802" height="9.76821" fill="#352348"/>
<rect x="14.6045" width="8.7959" height="0.827815" fill="#352348"/>
<rect x="14.6046" y="0.82782" width="0.497881" height="8.9404" fill="#352348"/>
<rect x="15.1024" y="9.27155" width="8.29802" height="0.496689" fill="#352348"/>
<rect x="16.928" y="2.81451" width="4.48093" height="4.4702" fill="#352348"/>
</svg>
